<svg xmlns="http://www.w3.org/2000/svg" width="272" height="260" viewBox="0 0 272 260">
  <defs>
    <style>
      .cls-1 {
        fill: #21140a;
        fill-rule: evenodd;
      }
    </style>
  </defs>
  <path id="_1.svg" data-name="1.svg" class="cls-1" d="M1827.1,996.157l-19.63-15.3V1139h-221V980.857L1566.9,996.11l-5.9-7.6L1696.97,882.53l48.05,37.449v-31.35a9.629,9.629,0,0,1,9.6-9.63h24.03a9.629,9.629,0,0,1,9.6,9.63V953.68L1833,988.559Zm-29.24-22.787-19.21-14.979V888.629h-24.03v38.839l16.29,12.694-5.9,7.6-68.04-53.033-100.89,78.64v156h201.78v-156Zm-164.64,40.44c12.27,0,20.51,12.34,20.51,23.86,0,11.1-7.73,19.48-18,19.48-12.62,0-20.43-12.49-20.43-24.05C1615.3,1022.1,1623.01,1013.81,1633.22,1013.81Zm2.51,33.71c4.86,0,8.39-4.15,8.39-9.85,0-6.73-4.47-14.23-10.9-14.23-4.89,0-8.31,3.98-8.31,9.66C1624.91,1040.06,1629.25,1047.52,1635.73,1047.52Zm61.24-14.45c25.6,0,48.05,22.5,48.05,48.15a24.079,24.079,0,0,1-24.03,24.07c-10.14,0-14.75-3.9-18.12-6.75-2.41-2.05-3.49-2.88-5.9-2.88s-3.48.83-5.88,2.87c-3.37,2.86-7.97,6.76-18.14,6.76a24.07,24.07,0,0,1-24.02-24.07C1648.93,1055.57,1671.38,1033.07,1696.97,1033.07Zm-24.02,62.59c6.64,0,9.1-2.07,11.93-4.48,2.7-2.29,6.07-5.15,12.09-5.15s9.39,2.86,12.1,5.15c2.84,2.41,5.29,4.48,11.92,4.48a14.449,14.449,0,0,0,14.42-14.44c0-20.52-17.96-38.52-38.44-38.52s-38.43,18-38.43,38.52A14.44,14.44,0,0,0,1672.95,1095.66Zm87.77-81.85c10.22,0,17.93,8.29,17.93,19.29,0,11.56-7.82,24.05-20.44,24.05-10.26,0-18-8.38-18-19.48C1740.21,1026.15,1748.45,1013.81,1760.72,1013.81Zm-2.51,33.71c6.48,0,10.83-7.46,10.83-14.42,0-5.68-3.42-9.66-8.32-9.66-6.42,0-10.9,7.5-10.9,14.23C1749.82,1043.37,1753.35,1047.52,1758.21,1047.52Zm-36.88-19.26c-11.51,0-19.55-10.27-19.55-24.98,0-18.7,10.14-32.8,23.6-32.8,11.56,0,19.64,10.288,19.64,25.014C1745.02,1014.17,1734.83,1028.26,1721.33,1028.26Zm4.05-48.151c-7.85,0-14,10.18-14,23.171,0,9.04,4.09,15.35,9.95,15.35,7.89,0,14.08-10.16,14.08-23.136C1735.41,988.4,1732.78,980.109,1725.38,980.109ZM1692.17,912.7h9.61v9.629h-9.61V912.7Zm-19.22,14.444h9.61v9.63h-9.61v-9.63Zm19.22,76.133c0,14.71-8.04,24.98-19.55,24.98-13.51,0-23.69-14.09-23.69-32.766,0-14.726,8.07-25.014,19.63-25.014C1682.02,970.48,1692.17,984.581,1692.17,1003.28Zm-23.61-23.171c-7.4,0-10.02,8.29-10.02,15.385,0,12.976,6.18,23.136,14.08,23.136,5.85,0,9.94-6.31,9.94-15.35C1682.56,990.289,1676.41,980.109,1668.56,980.109Zm-14.83-38.518h9.61v9.63h-9.61v-9.63Z" transform="translate(-1561 -879)"/>
</svg>

