<svg xmlns="http://www.w3.org/2000/svg" width="274" height="260" viewBox="0 0 274 260">
  <defs>
    <style>
      .cls-1 {
        fill: #21140a;
        fill-rule: evenodd;
      }
    </style>
  </defs>
  <path id="_2.svg" data-name="2.svg" class="cls-1" d="M1439.58,1138.18H1401.7a9.627,9.627,0,0,1-9.61-9.52,17.742,17.742,0,0,1,4.57-12.09c-2.55-8.84-5.12-10.31-10.66-13.42-0.05-.03-0.1-0.06-0.14-0.08-0.94,12.44-2.13,21.9-2.82,26.84a9.643,9.643,0,0,1-9.52,8.27h-15.08a9.639,9.639,0,0,1-9.62-9.63v-3.67a14.391,14.391,0,0,1,7.98-12.93l1.62-.81a154.945,154.945,0,0,0-6.56-44.54,77.917,77.917,0,0,1-3.04-21.22,72.082,72.082,0,0,1,1.64-15.19,142.989,142.989,0,0,0,3.11-26.82h-6.74a11.519,11.519,0,0,1-8.2-3.406l-5.63-5.642a11.626,11.626,0,0,1,8.2-19.842h8.13a24.1,24.1,0,0,1,18.72-18.775V940.776h4.81a24.076,24.076,0,0,1,23.99,22.673l2.13,3.555a86.818,86.818,0,0,1,12.34,44.6v9.2l22.66,25.54c0.09,0.1.17,0.2,0.25,0.29-1.15-6-2.38-12.15-3.59-18.24l-2.67-13.38,10.46,8.73a84.936,84.936,0,0,1,30.57,65.38v19.59A29.48,29.48,0,0,1,1439.58,1138.18Zm19.81-49.06a75.292,75.292,0,0,0-16.19-46.75c2.64,13.61,4.88,26.26,5.93,36.65a62.822,62.822,0,0,1,.64,8.91v6.92h-9.61v-4.82c0-2.89-.22-6.25-0.59-9.93a52.924,52.924,0,0,0-12.77-27.36l-25.1-28.28V1011.6a77.183,77.183,0,0,0-10.96-39.64l-3.46-5.774V964.85a14.476,14.476,0,0,0-9.61-13.621V964.85h-4.81a14.434,14.434,0,0,0-13.58,9.63h3.97v9.629H1341.2a2,2,0,0,0-1.41,3.4l5.64,5.643a1.953,1.953,0,0,0,1.4.583h16.42v4.815a157.314,157.314,0,0,1-3.4,33.726,62.07,62.07,0,0,0-1.41,13.15,68.079,68.079,0,0,0,2.68,18.56c2.76,9.83,6.93,24.68,6.93,50.12v2.97l-6.95,3.49a4.789,4.789,0,0,0-2.66,4.31v3.67h15.08a470.12,470.12,0,0,0,4.15-62.59h9.61c0,9.45-.29,18.33-0.72,26.37,1.49,0.92,2.87,1.71,4.14,2.42,5.48,3.08,9.37,5.59,12.47,11.9,3.3-9.9,11.9-16.62,22.57-16.62v9.63c-8.36,0-14.42,6.78-14.42,16.11v3.49l-3.32,1.09c-3.97,1.3-6.32,4.38-6.3,8.25l37.88-.05a19.849,19.849,0,0,0,19.81-19.84v-19.59ZM1447.1,928.427h14.43v9.627H1447.1v-9.627Zm-14.43,14.441h9.62v19.254h-9.62V942.868Zm0-38.509h9.62v19.254h-9.62V904.359Zm-19.24,24.068h14.43v9.627h-14.43v-9.627Zm-71.83,21.339-2.39,1.373-2.39-1.373c-13.4-7.687-36.07-25.333-36.07-42.693A24.089,24.089,0,0,1,1324.79,883a23.814,23.814,0,0,1,14.42,4.9,23.836,23.836,0,0,1,14.42-4.9,24.089,24.089,0,0,1,24.04,24.074C1377.67,924.423,1355,942.074,1341.6,949.766Zm12.03-57.137a14.2,14.2,0,0,0-10.8,5l-3.62,4.147-3.62-4.147a14.2,14.2,0,0,0-10.8-5,14.449,14.449,0,0,0-14.42,14.444c0,10.1,14.44,24.088,28.84,32.923,14.4-8.84,28.84-22.828,28.84-32.923A14.449,14.449,0,0,0,1353.63,892.629Zm-72.4,67.584a29.819,29.819,0,0,1,6.4,7.012l22.38,33.635,24.14,8.11a14.4,14.4,0,0,1,9.87,13.66,14.243,14.243,0,0,1-18.97,13.66l-28.96-9.67a14.51,14.51,0,0,1-7.33-5.61l-2.84-4.3-4.17,28.81,38.93,56.32a23.167,23.167,0,0,1-19.01,36.34c-3.95,0-7.91-.13-11.75-0.38l-61.41-4.02-8.97,6.73a17.506,17.506,0,0,1-9.25,2.49c-7.51,0-15.29-4.32-15.29-11.55a9.578,9.578,0,0,1,2.29-6.2l15.04-18.17a20.4,20.4,0,0,1,15.76-7.42h37.02l-15.36-15.38a55.834,55.834,0,0,1-15.91-45.92l7.14-60.777a24.955,24.955,0,0,1,11.26-17.93,24.02,24.02,0,0,1-9.17-18.877V926.332a24.035,24.035,0,1,1,48.07,0v14.444A24.056,24.056,0,0,1,1281.23,960.213Zm-30.71,18.494-7.14,60.783a48.658,48.658,0,0,0-.31,5.38,45.848,45.848,0,0,0,13.48,32.6l31.77,31.82h-60.23a10.855,10.855,0,0,0-8.36,3.93l-15.08,18.21c0.27,0.63,2.85,1.94,5.64,1.94a8.085,8.085,0,0,0,4.08-.99l11.2-8.45,64.98,4.26c3.64,0.24,7.38.36,11.12,0.36a13.524,13.524,0,0,0,11.1-21.23l-41.08-59.43,6.27-43.27-8.02-12.193,8.02-5.3,18.81,28.567a4.82,4.82,0,0,0,2.41,1.81l28.91,9.66a4.921,4.921,0,0,0,1.51.28,4.789,4.789,0,0,0,1.5-9.34l-27.27-9.15-24.2-36.379c-1.92-2.883-6.1-7.721-12.52-7.721C1258.58,964.85,1251.45,970.808,1250.52,978.707Zm31.01-52.375a14.425,14.425,0,1,0-28.85,0v14.444a14.425,14.425,0,1,0,28.85,0V926.332Z" transform="translate(-1195 -883)"/>
</svg>

