<svg xmlns="http://www.w3.org/2000/svg" width="269" height="269" viewBox="0 0 269 269">
  <defs>
    <style>
      .cls-1 {
        fill: #21140a;
        fill-rule: evenodd;
      }
    </style>
  </defs>
  <path id="_3.svg" data-name="3.svg" class="cls-1" d="M666.393,1090.16h-4.285l-3.464,31.45A23.991,23.991,0,0,1,634.766,1143H448.172a24,24,0,0,1-23.863-21.31l-3.583-31.53h-4.12a9.62,9.62,0,0,1-9.607-9.61v-9.6a9.62,9.62,0,0,1,9.607-9.61h8.5l4.2-18a24.073,24.073,0,0,1,9.959-14.09l6.16-4.11V1009.7a44.333,44.333,0,0,1,11.526-29.815c-17.442-15.518-25.937-32.922-25.937-53.047a38.429,38.429,0,0,1,76.858,0,14.411,14.411,0,1,1-28.822,0,9.608,9.608,0,0,0-19.215,0c0,14.4,7.614,26.045,25.388,38.706a40.468,40.468,0,0,1,4.635-.277c9.94,0,18.417,3.861,27.391,7.942,11.61,5.287,24.764,11.273,45.278,11.273a92.779,92.779,0,0,0,39.925-8.862,118.529,118.529,0,0,0,16.775-9.626l16.55-17.422a8.1,8.1,0,0,1,13.069,1.867,26.169,26.169,0,0,1,3.134,11.8,37.886,37.886,0,0,1-1.886,11.127l4.2,2.1a21.756,21.756,0,0,1,12.093,19.571,23.739,23.739,0,0,0,4,13.2l2.2,3.29-2.819,2.79c-9.124,9.01-19.238,13.39-30.923,13.39-7.149,0-11.732-1.55-18.661-3.91l-1.318-.45c-0.159.1-.333,0.2-0.512,0.31v5.95c0,9.31,5.218,21.07,10.721,31.73h37.315a9.62,9.62,0,0,1,9.608,9.61v9.6A9.62,9.62,0,0,1,666.393,1090.16Zm-43.11-75.46c6.45,2.2,10.006,3.41,15.565,3.41,8.035,0,14.931-2.6,21.461-8.14a33.285,33.285,0,0,1-3.523-14.933A12.2,12.2,0,0,0,650,984.059l-12.244-6.126,1.975-4.236a31.841,31.841,0,0,0,2.641-11.46,15.128,15.128,0,0,0-1.177-5.423l-15.907,16.648a120.132,120.132,0,0,1-18.68,10.818,102.45,102.45,0,0,1-44.081,9.809c-22.6,0-37.378-6.727-49.256-12.136-8.35-3.8-15.555-7.079-23.413-7.079a34.148,34.148,0,0,0-5.155.432l-1.881.281-1.567-1.088c-14.444-10.015-31.027-24.492-31.027-47.661a19.215,19.215,0,0,1,38.429,0,4.8,4.8,0,1,0,9.607,0,28.822,28.822,0,0,0-57.643,0c0,18.826,8.416,34.414,26.486,49.068l4.47,3.627-4.367,3.748a34.788,34.788,0,0,0-12.178,26.419v20.58l-10.438,6.96a14.442,14.442,0,0,0-5.962,8.39l-3.666,15.71h8.27l17.467-20.12,1.633-.31c0.183-.04,19.468-3.95,29.473-19.19l8.032,5.28a47.492,47.492,0,0,1-2.835,3.82c6.821,2.69,18.513,6.5,30.08,6.5,17.6,0,26.612-4.26,26.7-4.31l6.9-3.34,0.024,31.67h8.343c19.295-32.72,45.932-46.89,47.085-47.49l1.807-.95Zm-167.324,46.64h18.29v-14.18a61.287,61.287,0,0,1-8.411,2.8Zm27.9-19.08v19.08h9.607v-21.57c-1.509-.6-2.8-1.14-3.847-1.61A56.516,56.516,0,0,1,483.857,1042.26Zm19.214,0.83v18.25h48.036v-17.29a92.177,92.177,0,0,1-24.018,2.88A86.263,86.263,0,0,1,503.071,1043.09Zm77.287,18.25H594.5a35.869,35.869,0,0,1-5.758-11.39A127.321,127.321,0,0,0,580.358,1061.34Zm15.942-19.79c2.622,9.88,3.712,11.3,8.679,17.72q0.743,0.96,1.6,2.07H618.32c-5.02-10.25-9.328-21.23-9.549-30.95A127.088,127.088,0,0,0,596.3,1041.55Zm70.093,29.4H416.606v9.6h67.251v9.61H430.391l3.459,30.45a14.4,14.4,0,0,0,14.322,12.78H634.766a14.39,14.39,0,0,0,14.327-12.83l3.349-30.4h-67.71v-9.61h81.661v-9.6Zm-168.126,9.6h9.608v9.61h-9.608v-9.61ZM608.75,898.017h14.411v9.607H608.75v-9.607Zm-14.411,14.411h9.608v19.214h-9.608V912.428Zm0-38.429h9.608v19.214h-9.608V874Zm-19.214,24.018h14.411v9.607H575.125v-9.607Z" transform="translate(-407 -874)"/>
</svg>

